<svg width="181" height="49" viewBox="0 0 181 49" fill="none" xmlns="http://www.w3.org/2000/svg">
<path d="M79.3146 14.1572L88.1593 36.9425C88.4991 37.8161 88.8752 38.4227 89.2877 38.7625C89.7245 39.0779 90.1127 39.2478 90.4524 39.272V40C89.7245 39.9515 88.863 39.9272 87.8682 39.9272C86.8975 39.9029 85.9148 39.8908 84.9199 39.8908C83.8037 39.8908 82.7481 39.9029 81.7532 39.9272C80.7584 39.9272 79.9697 39.9515 79.3873 40V39.272C80.6249 39.2235 81.4014 39.0172 81.7168 38.6533C82.0566 38.265 81.9838 37.4521 81.4985 36.2146L75.3107 19.2894L75.9659 18.343L70.4334 32.7567C69.8995 34.0913 69.5719 35.1833 69.4506 36.0326C69.3536 36.8819 69.4142 37.537 69.6326 37.9981C69.8753 38.4591 70.2514 38.7867 70.761 38.9808C71.2948 39.1507 71.9257 39.2478 72.6537 39.272V40C71.8529 39.9515 71.0885 39.9272 70.3606 39.9272C69.6326 39.9029 68.8925 39.8908 68.1403 39.8908C67.6064 39.8908 67.0969 39.9029 66.6116 39.9272C66.1505 39.9272 65.738 39.9515 65.374 40V39.272C65.8836 39.175 66.4053 38.8474 66.9391 38.2893C67.473 37.7312 67.9947 36.7848 68.5043 35.4502L76.8031 14.1572C77.1913 14.1815 77.6038 14.1936 78.0406 14.1936C78.5017 14.1936 78.9263 14.1815 79.3146 14.1572ZM81.8624 29.5173V30.2453H71.0157L71.3797 29.5173H81.8624ZM114.565 14.23V14.9216C113.788 15.0914 112.951 15.4312 112.053 15.9407C111.18 16.4503 110.258 17.2753 109.287 18.4158L102.444 26.569L104.555 23.548L113.218 37.0517C113.558 37.6098 113.922 38.0588 114.31 38.3985C114.698 38.7382 115.208 39.0294 115.839 39.272V40C114.99 39.9515 114.043 39.9272 113 39.9272C111.956 39.9029 111.01 39.8908 110.161 39.8908C109.651 39.8908 109.032 39.9029 108.304 39.9272C107.576 39.9272 106.654 39.9515 105.538 40V39.272C106.533 39.2235 107.127 39.09 107.322 38.8717C107.54 38.629 107.455 38.2165 107.067 37.6341L101.789 29.0805C101.449 28.5224 101.146 28.1099 100.879 27.843C100.612 27.5518 100.345 27.3577 100.078 27.2606C99.8114 27.1393 99.4596 27.0665 99.0228 27.0422V26.2778C100.09 26.2536 101.037 25.9624 101.862 25.4043C102.711 24.8462 103.633 23.9969 104.628 22.8564L106.776 20.2721C107.698 19.1802 108.232 18.246 108.377 17.4695C108.547 16.6687 108.389 16.0499 107.904 15.6131C107.443 15.1764 106.727 14.9458 105.756 14.9216V14.23C106.363 14.2543 106.933 14.2785 107.467 14.3028C108.025 14.3028 108.596 14.3149 109.178 14.3392C109.785 14.3392 110.44 14.3392 111.143 14.3392C111.847 14.3392 112.478 14.3271 113.036 14.3028C113.619 14.2785 114.128 14.2543 114.565 14.23ZM101.971 14.23V14.958C101.195 14.9822 100.6 15.0793 100.188 15.2492C99.7993 15.3948 99.5445 15.6859 99.4232 16.1227C99.3019 16.5352 99.2412 17.1904 99.2412 18.0882V36.1418C99.2412 37.0153 99.3019 37.6705 99.4232 38.1073C99.5688 38.5441 99.8357 38.8353 100.224 38.9808C100.612 39.1264 101.195 39.2235 101.971 39.272V40C101.316 39.9515 100.491 39.9272 99.496 39.9272C98.5011 39.9029 97.4941 39.8908 96.4749 39.8908C95.3102 39.8908 94.2061 39.9029 93.1627 39.9272C92.1435 39.9272 91.3306 39.9515 90.724 40V39.272C91.5005 39.2235 92.0829 39.1264 92.4711 38.9808C92.8594 38.8353 93.1141 38.5441 93.2355 38.1073C93.3811 37.6705 93.4539 37.0153 93.4539 36.1418V18.0882C93.4539 17.1904 93.3811 16.5352 93.2355 16.1227C93.1141 15.6859 92.8472 15.3948 92.4347 15.2492C92.0465 15.0793 91.4762 14.9822 90.724 14.958V14.23C91.3306 14.2543 92.1435 14.2785 93.1627 14.3028C94.2061 14.3271 95.3102 14.3392 96.4749 14.3392C97.4941 14.3392 98.5011 14.3271 99.496 14.3028C100.491 14.2785 101.316 14.2543 101.971 14.23ZM132.14 40V39.272C132.917 39.2235 133.499 39.1264 133.888 38.9808C134.276 38.8353 134.531 38.5441 134.652 38.1073C134.797 37.6705 134.87 37.0153 134.87 36.1418V18.0882C134.87 17.1904 134.797 16.5352 134.652 16.1227C134.531 15.6859 134.264 15.3948 133.851 15.2492C133.463 15.0793 132.893 14.9822 132.14 14.958V14.23C132.796 14.2543 133.645 14.2785 134.688 14.3028C135.756 14.3271 136.812 14.3392 137.855 14.3392C138.971 14.3392 140.015 14.3271 140.985 14.3028C141.98 14.2785 142.781 14.2543 143.387 14.23V14.958C142.611 14.9822 142.016 15.0793 141.604 15.2492C141.216 15.3948 140.961 15.6859 140.84 16.1227C140.718 16.5352 140.658 17.1904 140.658 18.0882V36.1418C140.658 37.0153 140.718 37.6705 140.84 38.1073C140.985 38.5441 141.252 38.8353 141.64 38.9808C142.029 39.1264 142.611 39.2235 143.387 39.272V40C142.781 39.9515 141.98 39.9272 140.985 39.9272C140.015 39.9029 138.971 39.8908 137.855 39.8908C136.812 39.8908 135.756 39.9029 134.688 39.9272C133.645 39.9272 132.796 39.9515 132.14 40ZM116.708 40V39.272C117.484 39.2235 118.066 39.1264 118.455 38.9808C118.843 38.8353 119.098 38.5441 119.219 38.1073C119.365 37.6705 119.437 37.0153 119.437 36.1418V18.0882C119.437 17.1904 119.365 16.5352 119.219 16.1227C119.098 15.6859 118.831 15.3948 118.418 15.2492C118.03 15.0793 117.46 14.9822 116.708 14.958V14.23C117.338 14.2543 118.151 14.2785 119.146 14.3028C120.165 14.3271 121.269 14.3392 122.458 14.3392C123.478 14.3392 124.485 14.3271 125.48 14.3028C126.474 14.2785 127.299 14.2543 127.955 14.23V14.958C127.178 14.9822 126.584 15.0793 126.171 15.2492C125.783 15.3948 125.528 15.6859 125.407 16.1227C125.285 16.5352 125.225 17.1904 125.225 18.0882V36.1418C125.225 37.0153 125.285 37.6705 125.407 38.1073C125.552 38.5441 125.819 38.8353 126.207 38.9808C126.596 39.1264 127.178 39.2235 127.955 39.272V40C127.299 39.9515 126.474 39.9272 125.48 39.9272C124.485 39.9029 123.478 39.8908 122.458 39.8908C121.269 39.8908 120.165 39.9029 119.146 39.9272C118.151 39.9272 117.338 39.9515 116.708 40ZM122.859 27.4062V26.6782H137.236V27.4062H122.859ZM157.066 14.23V14.958C156.29 14.9822 155.695 15.0793 155.283 15.2492C154.894 15.3948 154.64 15.6859 154.518 16.1227C154.397 16.5352 154.336 17.1904 154.336 18.0882V36.1418C154.336 37.0153 154.397 37.6705 154.518 38.1073C154.664 38.5441 154.931 38.8353 155.319 38.9808C155.707 39.1264 156.29 39.2235 157.066 39.272V40C156.411 39.9515 155.586 39.9272 154.591 39.9272C153.596 39.9029 152.589 39.8908 151.57 39.8908C150.381 39.8908 149.277 39.9029 148.258 39.9272C147.263 39.9272 146.45 39.9515 145.819 40V39.272C146.596 39.2235 147.178 39.1264 147.566 38.9808C147.954 38.8353 148.209 38.5441 148.331 38.1073C148.476 37.6705 148.549 37.0153 148.549 36.1418V18.0882C148.549 17.1904 148.476 16.5352 148.331 16.1227C148.209 15.6859 147.942 15.3948 147.53 15.2492C147.142 15.0793 146.571 14.9822 145.819 14.958V14.23C146.45 14.2543 147.263 14.2785 148.258 14.3028C149.277 14.3271 150.381 14.3392 151.57 14.3392C152.589 14.3392 153.596 14.3271 154.591 14.3028C155.586 14.2785 156.411 14.2543 157.066 14.23ZM170.969 14.23V14.958C170.144 14.9822 169.513 15.0793 169.077 15.2492C168.664 15.3948 168.385 15.6859 168.24 16.1227C168.094 16.5352 168.021 17.1904 168.021 18.0882V36.5786C168.021 37.3308 168.07 37.8889 168.167 38.2529C168.288 38.6169 168.506 38.8595 168.822 38.9808C169.162 39.1022 169.659 39.1628 170.314 39.1628H172.098C172.923 39.1628 173.699 38.9687 174.427 38.5805C175.155 38.1922 175.81 37.6462 176.393 36.9425C176.975 36.2146 177.46 35.3532 177.849 34.3583C178.237 33.3634 178.528 32.2593 178.722 31.046H179.559C179.487 31.871 179.45 32.9387 179.45 34.2491C179.45 34.8072 179.462 35.6201 179.487 36.6878C179.511 37.7554 179.584 38.8595 179.705 40C178.467 39.9515 177.072 39.9272 175.519 39.9272C173.966 39.9029 172.583 39.8908 171.37 39.8908C170.763 39.8908 169.987 39.8908 169.04 39.8908C168.094 39.8908 167.075 39.9029 165.983 39.9272C164.891 39.9272 163.787 39.9393 162.671 39.9636C161.554 39.9636 160.499 39.9757 159.504 40V39.272C160.28 39.2235 160.863 39.1264 161.251 38.9808C161.639 38.8353 161.894 38.5441 162.015 38.1073C162.161 37.6705 162.234 37.0153 162.234 36.1418V18.0882C162.234 17.1904 162.161 16.5352 162.015 16.1227C161.894 15.6859 161.627 15.3948 161.215 15.2492C160.826 15.0793 160.256 14.9822 159.504 14.958V14.23C160.111 14.2543 160.923 14.2785 161.943 14.3028C162.986 14.3271 164.09 14.3392 165.255 14.3392C166.323 14.3392 167.366 14.3271 168.385 14.3028C169.429 14.2785 170.29 14.2543 170.969 14.23Z" fill="black"/>
<path d="M0 3C0 1.34314 1.34315 0 3 0H50C51.6569 0 53 1.34315 53 3V46C53 47.6569 51.6569 49 50 49H3C1.34315 49 0 47.6569 0 46V3Z" fill="#EA4C89"/>
<path d="M27.3946 14.1572L36.2394 36.9425C36.5791 37.8161 36.9552 38.4227 37.3677 38.7625C37.8045 39.0779 38.1927 39.2478 38.5324 39.272V40C37.8045 39.9515 36.9431 39.9272 35.9482 39.9272C34.9775 39.9029 33.9948 39.8908 32.9999 39.8908C31.8837 39.8908 30.8281 39.9029 29.8333 39.9272C28.8384 39.9272 28.0497 39.9515 27.4674 40V39.272C28.7049 39.2235 29.4814 39.0172 29.7969 38.6533C30.1366 38.265 30.0638 37.4521 29.5785 36.2146L23.3908 19.2894L24.0459 18.343L18.5134 32.7567C17.9795 34.0913 17.652 35.1833 17.5306 36.0326C17.4336 36.8819 17.4942 37.537 17.7126 37.9981C17.9553 38.4591 18.3314 38.7867 18.841 38.9808C19.3748 39.1507 20.0057 39.2478 20.7337 39.272V40C19.9329 39.9515 19.1686 39.9272 18.4406 39.9272C17.7126 39.9029 16.9725 39.8908 16.2203 39.8908C15.6865 39.8908 15.1769 39.9029 14.6916 39.9272C14.2305 39.9272 13.818 39.9515 13.454 40V39.272C13.9636 39.175 14.4853 38.8474 15.0192 38.2893C15.553 37.7312 16.0747 36.7848 16.5843 35.4502L24.8831 14.1572C25.2713 14.1815 25.6839 14.1936 26.1206 14.1936C26.5817 14.1936 27.0063 14.1815 27.3946 14.1572ZM29.9425 29.5173V30.2453H19.0958L19.4597 29.5173H29.9425Z" fill="white"/>
</svg>
